<mxfile host="app.diagrams.net" modified="2024-03-31T14:32:11.729Z" agent="Mozilla/5.0 (Windows NT 10.0; Win64; x64) AppleWebKit/537.36 (KHTML, like Gecko) Chrome/123.0.0.0 Safari/537.36" version="24.2.1" etag="Ig9oABMO_8mGive5twhn" type="github">
  <diagram name="Page-1" id="3Ht5cjnI892Zg7E8-_Az">
    <mxGraphModel>
      <root>
        <mxCell id="0" />
        <mxCell id="1" parent="0" />
      </root>
    </mxGraphModel>
  </diagram>
</mxfile>
